<svg transform="scale(4)" version="1.1" id="HrmIjtKy86" xmlns="http://www.w3.org/2000/svg" xmlns:xlink="http://www.w3.org/1999/xlink" x="0px" y="0px" viewBox="0 0 500 500" xml:space="preserve" class="pbimage_pbimage__wrapper__image__0LEis false"><title>Artificial Intelligence</title><style type="text/css"> .st0{fill:#FFFFFF;} .st1{fill:#000111;} .st2{fill:url(#SVGID_1_-HrmIjtKy86);} .st3{fill:#FFC2A7;} .st4{fill:#D88260;} .st5{fill:url(#SVGID_00000087402546160911709440000018214690906307031195_-HrmIjtKy86);} .st6{fill:url(#SVGID_00000059286068840547304370000006048067150535555744_-HrmIjtKy86);} .st7{fill:#C64234;} .st8{fill:url(#SVGID_00000151508910730844263680000011565532193089228428_-HrmIjtKy86);} .st9{fill:url(#SVGID_00000000909738101313016320000014142926014306931632_-HrmIjtKy86);} .st10{fill:#FED490;} .st11{fill:#005045;}
 .st11{fill:#005045;}
 .st10{fill:#FED490;}
 .st7{fill:#C64234;}
 .st4{fill:#D88260;}
 .st3{fill:#FFC2A7;}
 .st1{fill:#000111;}
 .st0{fill:#FFFFFF;}</style><g id="head"><path class="st0" d="M320,98.8c-1.5-7.2-4.3-14.1-8.4-20.2l8.4-8.4l-16.9-16.9l-8.4,8.3c-6.1-4-13-6.9-20.2-8.4V41.5h-23.9v11.8
		c-7.2,1.5-14.1,4.3-20.2,8.4l-8.4-8.4l-16.9,16.9l8.4,8.3c-4,6.1-6.9,13-8.4,20.2h-11.8v23.9h11.8c1.5,7.2,4.3,14.1,8.4,20.2
		l-8.4,8.4l16.9,16.9l8.4-8.4c6.1,4,13,6.9,20.2,8.4v11.8h23.9v-11.8c7.2-1.5,14.1-4.3,20.2-8.4l8.4,8.4l16.9-16.9l-8.4-8.4
		c4-6.1,6.9-13,8.4-20.2h11.8V98.8H320z M262.6,141.4c-17,0-30.7-13.7-30.7-30.7S245.6,80,262.6,80c17,0,30.7,13.7,30.7,30.7
		c0,0,0,0,0,0C293.3,127.7,279.5,141.4,262.6,141.4L262.6,141.4z" fill="#FFFFFF"></path><path class="st1" d="M274.5,181h-23.9c-0.6,0-1-0.4-1-1v-11c-6.8-1.5-13.2-4.2-19.1-7.9l-7.8,7.8c-0.4,0.4-1,0.4-1.4,0c0,0,0,0,0,0
		L204.5,152c-0.4-0.4-0.4-1,0-1.4c0,0,0,0,0,0l7.8-7.8c-3.7-5.8-6.4-12.3-7.9-19h-11c-0.6,0-1-0.4-1-1v-24c0-0.6,0.4-1,1-1h11
		c1.5-6.7,4.2-13.2,7.9-19l-7.8-7.8c-0.4-0.4-0.4-1,0-1.4c0,0,0,0,0,0l16.9-16.9c0.4-0.4,1-0.4,1.4,0c0,0,0,0,0,0l7.8,7.8
		c5.8-3.7,12.3-6.4,19.1-7.9v-11c0-0.6,0.4-1,1-1h23.9c0.6,0,1,0.4,1,1v11c6.7,1.5,13.2,4.2,19,7.9l7.8-7.8c0.4-0.4,1-0.4,1.4,0
		c0,0,0,0,0,0l16.9,16.9c0.4,0.4,0.4,1,0,1.4c0,0,0,0,0,0l-7.8,7.8c3.7,5.8,6.4,12.3,7.9,19h11c0.6,0,1,0.4,1,1v23.9
		c0,0.6-0.4,1-1,1h-11c-1.5,6.7-4.2,13.2-7.9,19l7.8,7.8c0.4,0.4,0.4,1,0,1.4c0,0,0,0,0,0l-16.9,16.9c-0.4,0.4-1,0.4-1.4,0
		c0,0,0,0,0,0l-7.8-7.8c-5.8,3.7-12.3,6.4-19,7.9v11C275.6,180.5,275.2,180.9,274.5,181C274.6,181,274.6,181,274.5,181z M251.6,179
		h21.9v-10.9c0-0.5,0.3-0.9,0.8-1c7.1-1.5,13.8-4.3,19.9-8.2c0.4-0.3,0.9-0.2,1.3,0.1l7.6,7.6l15.5-15.5l-7.6-7.6
		c-0.3-0.3-0.4-0.9-0.1-1.3c4-6,6.8-12.8,8.2-19.8c0.1-0.5,0.5-0.8,1-0.8h10.8V99.8H320c-0.5,0-0.9-0.3-1-0.8
		c-1.5-7.1-4.3-13.8-8.2-19.9c-0.3-0.4-0.2-0.9,0.1-1.3l7.6-7.6l-15.4-15.5l-7.6,7.6c-0.3,0.3-0.9,0.4-1.3,0.1
		c-6-4-12.8-6.8-19.9-8.2c-0.5-0.1-0.8-0.5-0.8-1V42.5h-21.8v10.8c0,0.5-0.3,0.9-0.8,1c-7.1,1.5-13.8,4.3-19.8,8.2
		c-0.4,0.3-0.9,0.2-1.3-0.1l-7.6-7.6l-15.5,15.5l7.6,7.6c0.3,0.3,0.4,0.9,0.1,1.3c-4,6-6.8,12.8-8.2,19.9c-0.1,0.5-0.5,0.8-1,0.8
		h-10.8v21.9h10.8c0.5,0,0.9,0.3,1,0.8c1.5,7.1,4.3,13.8,8.2,19.9c0.3,0.4,0.2,0.9-0.1,1.3l-7.6,7.6l15.4,15.5l7.6-7.7
		c0.3-0.3,0.9-0.4,1.3-0.1c6,4,12.8,6.8,19.9,8.2c0.5,0.1,0.8,0.5,0.8,1V179z M262.6,142.5c-17.5,0-31.8-14.2-31.8-31.7
		S245,79,262.6,79c17.5,0,31.8,14.2,31.8,31.7c0,0,0,0,0,0C294.3,128.3,280.1,142.4,262.6,142.5L262.6,142.5z M262.6,81.1
		c-16.4,0-29.7,13.3-29.7,29.7c0,16.4,13.3,29.7,29.7,29.7c16.4,0,29.7-13.3,29.7-29.7c0,0,0,0,0,0C292.3,94.4,279,81,262.6,81.1
		L262.6,81.1z" fill="#000111"></path><linearGradient id="SVGID_1_-HrmIjtKy86" gradientUnits="userSpaceOnUse" x1="238.28" y1="286.065" x2="296.91" y2="286.065" gradientTransform="matrix(1 0 0 -1 0 502)"><stop offset="0" style="stop-color: rgb(243, 131, 116);"></stop><stop offset="1" style="stop-color: rgb(198, 66, 52);"></stop></linearGradient><path class="st2" d="M291.9,210.9c-0.6-3-1.8-5.9-3.5-8.6l3.5-3.5l-7.1-7.1l-3.5,3.5c-2.6-1.7-5.5-2.9-8.6-3.6v-5h-10.1v5
		c-3.1,0.6-6,1.8-8.6,3.6l-3.5-3.5l-7.1,7.1l3.5,3.5c-1.7,2.6-2.9,5.5-3.6,8.6h-5V221h5c0.6,3.1,1.8,6,3.6,8.6l-3.5,3.5l7.1,7.1
		l3.5-3.5c2.6,1.7,5.5,2.9,8.6,3.6v5h10.1v-5c3.1-0.6,6-1.8,8.6-3.6l3.5,3.5l7.1-7.1l-3.5-3.5c1.7-2.6,2.9-5.5,3.5-8.6h5v-10.1
		H291.9z M267.6,226.4c-5.8,0-10.5-4.7-10.5-10.5s4.7-10.5,10.5-10.5s10.5,4.7,10.5,10.5l0,0C278.1,221.7,273.4,226.4,267.6,226.4z"></path><path class="st1" d="M195,65.2c-0.6-3.1-1.8-6-3.6-8.6l3.6-3.5l-7.2-7.2l-3.5,3.5c-2.6-1.7-5.5-2.9-8.6-3.5v-5h-10.1v5
		c-3.1,0.6-6,1.8-8.6,3.5l-3.5-3.5l-7.2,7.2l3.6,3.5c-1.7,2.6-2.9,5.5-3.6,8.6h-5v10.1h5c0.6,3.1,1.8,6,3.6,8.6l-3.5,3.5l7.2,7.2
		l3.5-3.5c2.6,1.7,5.5,2.9,8.6,3.6v5h10.1v-5c3.1-0.6,6-1.8,8.6-3.6l3.5,3.5l7.1-7.2l-3.5-3.5c1.7-2.6,2.9-5.5,3.5-8.6h5V65.2H195z
		 M170.7,80.8c-5.8,0-10.5-4.7-10.5-10.5c0-5.8,4.7-10.5,10.5-10.5s10.5,4.7,10.5,10.5c0,0,0,0,0,0C181.2,76,176.5,80.8,170.7,80.8
		C170.7,80.8,170.7,80.8,170.7,80.8z" fill="#000111"></path><path class="st1" d="M457.8,131.8c-0.1,0-0.2,0-0.4-0.1l-77.3-28.3c-15.3-5.3-16.8-17.6-16.9-18.1l-5.2-33.1
		c-0.1-0.5,0.3-1.1,0.8-1.2c0.1,0,0.1,0,0.2,0c45.7-0.6,70.4,21.1,83.1,39.4c8.3,12.1,14,25.8,16.7,40.2c0.1,0.5-0.3,1.1-0.8,1.1
		C458,131.8,457.9,131.8,457.8,131.8L457.8,131.8z M360.3,53.1l5,32c0.1,0.5,1.5,11.6,15.6,16.5l75.7,27.7
		c-2.8-13.5-8.3-26.3-16.1-37.7c-12.2-17.6-36-38.5-79.7-38.5L360.3,53.1z" fill="#000111"></path><path class="st1" d="M321.2,317.1c-0.5,0-0.9-0.4-1-0.9l-17.1-111.8c0-0.2-5.3-25,17.5-31.7l19.2-4.1h0.2c0.5,0,11.1-0.6,11.3-11.3
		l-6.4-100.5c0-0.6,0.4-1,0.9-1.1c0.1,0,0.1,0,0.2,0l14.1,0.7c0.6,0,1,0.5,0.9,1.1c0,0.6-0.5,1-1,0.9l0,0l-13-0.6l6.4,99.5
		c-0.3,12.1-12,13.3-13.1,13.4l-19,4c-20.9,6.1-16.2,28.4-16,29.3l17,111.9c0.1,0.5-0.3,1.1-0.8,1.2c0,0,0,0,0,0L321.2,317.1z" fill="#000111"></path><path class="st1" d="M429.6,365.3h-39.9c-1.7-0.1-40.5-2.5-58.6-18.9c-0.4-0.4-0.4-1-0.1-1.4s1-0.4,1.4-0.1
		c17.6,16,57,18.4,57.3,18.4h39.8c18.8,0,21.4-15.6,21.6-16.9V326c0-3.7,1.3-4.6,2.8-5.8c1.2-0.8,2.2-1.8,2.9-3c2.5-4,1.1-9.8,1-9.8
		c-0.1-0.5,0.1-1,0.6-1.2c2.2-0.9,4.9-4,5.5-8c0.5-3.5-2-16.4-3-21.1c-0.1-0.3,0-0.6,0.2-0.9c0.2-0.2,0.5-0.4,0.8-0.4h16.8
		c2.8,0.1,5.5-1.4,6.8-3.9c2.9-4.8,2.8-13.1,1.2-16l-29-55.9c-0.1-0.3-0.1-0.6,0-0.9c0.1-0.1,6.8-14.8,5.8-29.1
		c-1-14.6-6.8-38.8-6.9-39.1c-0.1-0.6,0.2-1.1,0.8-1.2c0.6-0.1,1.1,0.2,1.2,0.8c0.1,0.2,5.9,24.7,6.9,39.4c0.9,13.6-4.6,27-5.8,29.6
		l28.7,55.5c1.9,3.3,2.1,12.3-1.3,18c-1.7,3.1-5,5-8.5,4.9h-15.4c0.8,4,3.4,16.7,2.7,20.6c-0.6,3.8-2.8,7.1-6,9.1
		c0.4,1.9,0.9,6.8-1.5,10.6c-0.9,1.4-2.1,2.6-3.4,3.6c-1.3,1-2,1.5-2,4.1v20.3c0,0,0,0.1,0,0.1C453.2,346.7,450.6,365.3,429.6,365.3
		z" fill="#000111"></path><path class="st1" d="M435.8,204.1l16.2,2.4l-0.5-1.9c-2.2-9-9.5-15.9-18.7-17.4l-16.8-2.9l0.2,1.2
		C418.2,195.3,426,202.7,435.8,204.1z" fill="#000111"></path><path class="st1" d="M460,141.7c-0.1,0-0.2,0-0.3-0.1l-90.3-30.4c-11.4-4.4-12.1-11.7-12.1-12.6l-5.8-40.7
		c-0.1-0.6,0.3-1.1,0.9-1.1c0.6-0.1,1.1,0.3,1.1,0.9l5.8,40.8c0,0,0,0.1,0,0.1c0,0.3,0.3,6.7,10.8,10.7l90.3,30.4
		c0.6,0.1,0.9,0.6,0.8,1.2S460.5,141.8,460,141.7L460,141.7L460,141.7z" fill="#000111"></path><path class="st1" d="M370.4,369.6c-0.5,0-0.9-0.1-1.4-0.1l-36.6-7.8c-26.3-6.4-38.7-33.2-39.4-34.8l-74.1-122
		c-0.3-0.5-0.1-1.1,0.3-1.4c0.5-0.3,1.1-0.1,1.4,0.3l74.2,122.1c0,0,0.1,0.1,0.1,0.1c0.1,0.3,12.1,27.4,38,33.7l36.5,7.8
		c2.5,0.5,4.9-1.1,5.5-3.6c0.1-0.3,0.1-0.6,0.1-1c0-0.6,0.4-1,1-1s1,0.4,1,1C377,366.7,374,369.6,370.4,369.6L370.4,369.6z" fill="#000111"></path><path class="st1" d="M410.3,459.1H271.8c-0.6,0-1-0.4-1-1V341.6L199.2,219c-0.3-0.5-0.1-1.1,0.4-1.4c0.5-0.3,1.1-0.1,1.4,0.4
		l71.7,122.9c0.1,0.2,0.1,0.3,0.1,0.5V457h136.5v-65c0-11.1,12.8-27.2,13.3-27.9c0.4-0.4,1-0.5,1.4-0.2s0.5,1,0.2,1.4
		c-0.1,0.2-12.9,16.2-12.9,26.6v66C411.4,458.6,411,459,410.3,459.1C410.4,459.1,410.4,459.1,410.3,459.1z" fill="#000111"></path><path class="st1" d="M345.9,57.8h-30.1c-0.6,0-1-0.4-1-1s0.4-1,1-1h30.1c0.6,0,1,0.4,1,1S346.5,57.8,345.9,57.8z" fill="#000111"></path><path class="st1" d="M315,278.7h-29.6c-0.6,0-1-0.4-1-1V255c0-0.6,0.4-1,1-1s1,0.4,1,1v21.6H315c0.6,0,1,0.4,1,1
		S315.6,278.6,315,278.7L315,278.7z" fill="#000111"></path><path class="st1" d="M285.2,256c-3.3,0-5.9-2.6-5.9-5.9c0-3.3,2.6-5.9,5.9-5.9c3.3,0,5.9,2.6,5.9,5.9c0,0,0,0,0,0
		C291.1,253.4,288.5,256,285.2,256z M285.2,246.3c-2.1,0-3.9,1.7-3.9,3.9c0,2.1,1.7,3.8,3.9,3.8c2.1,0,3.9-1.7,3.9-3.8
		C289.1,248,287.4,246.3,285.2,246.3L285.2,246.3z" fill="#000111"></path><path class="st1" d="M272.9,266.6c-3.3,0-5.9-2.6-5.9-5.9s2.6-5.9,5.9-5.9c3.3,0,5.9,2.6,5.9,5.9S276.2,266.6,272.9,266.6
		L272.9,266.6z M272.9,256.9c-2.1,0-3.9,1.7-3.9,3.9c0,2.1,1.7,3.9,3.9,3.9c2.1,0,3.9-1.7,3.9-3.9
		C276.8,258.6,275,256.9,272.9,256.9L272.9,256.9L272.9,256.9z" fill="#000111"></path><path class="st1" d="M310.6,382.9c-3.3,0-5.9-2.6-5.9-5.9s2.6-5.9,5.9-5.9c3.3,0,5.9,2.6,5.9,5.9S313.9,382.9,310.6,382.9
		L310.6,382.9z M310.6,373.2c-2.1,0-3.9,1.7-3.8,3.9c0,2.1,1.7,3.9,3.9,3.9c2.1,0,3.9-1.7,3.8-3.9c0,0,0,0,0,0
		C314.5,374.9,312.8,373.2,310.6,373.2L310.6,373.2z" fill="#000111"></path><path class="st1" d="M302.6,414.6c-3.3,0-5.9-2.6-5.9-5.9s2.6-5.9,5.9-5.9c3.3,0,5.9,2.6,5.9,5.9S305.8,414.6,302.6,414.6
		L302.6,414.6z M302.6,404.9c-2.1,0-3.9,1.7-3.9,3.9c0,2.1,1.7,3.9,3.9,3.9c2.1,0,3.9-1.7,3.9-3.9S304.7,404.9,302.6,404.9
		L302.6,404.9z" fill="#000111"></path><path class="st1" d="M324.1,427c-3.3,0-5.9-2.6-5.9-5.9c0-3.3,2.6-5.9,5.9-5.9c3.3,0,5.9,2.6,5.9,5.9c0,0,0,0,0,0
		C330,424.4,327.4,427,324.1,427z M324.1,417.3c-2.1,0-3.9,1.7-3.9,3.9c0,2.1,1.7,3.9,3.9,3.9c2.1,0,3.9-1.7,3.9-3.9
		S326.2,417.3,324.1,417.3L324.1,417.3z" fill="#000111"></path><path class="st1" d="M338.2,433.5c-3.3,0-5.9-2.6-5.9-5.9s2.6-5.9,5.9-5.9c3.3,0,5.9,2.6,5.9,5.9S341.4,433.5,338.2,433.5
		L338.2,433.5z M338.2,423.7c-2.1,0-3.9,1.7-3.9,3.9c0,2.1,1.7,3.9,3.9,3.9c2.1,0,3.9-1.7,3.9-3.9
		C342,425.5,340.3,423.7,338.2,423.7z" fill="#000111"></path><path class="st1" d="M282.7,345.2c-3.3,0-5.9-2.6-5.9-5.9s2.6-5.9,5.9-5.9c3.3,0,5.9,2.6,5.9,5.9S285.9,345.2,282.7,345.2
		L282.7,345.2z M282.7,335.5c-2.1,0-3.9,1.7-3.9,3.9c0,2.1,1.7,3.9,3.9,3.9c2.1,0,3.9-1.7,3.9-3.9
		C286.5,337.2,284.8,335.5,282.7,335.5z" fill="#000111"></path><path class="st1" d="M319.8,308h-16.7c-0.6,0-1-0.4-1-1v-20.5h-33.2c-0.6,0-1-0.4-1-1s0.4-1,1-1h34.2c0.6,0,1,0.4,1,1V306h15.6
		c0.6,0,1,0.4,1,1S320.3,308,319.8,308L319.8,308z" fill="#000111"></path><path class="st1" d="M284.8,274.4H273c-0.6,0-1-0.4-1-1v-7.1c0-0.6,0.4-1,1-1s1,0.4,1,1v6.1h10.8c0.6,0,1,0.4,1,1
		S285.4,274.3,284.8,274.4L284.8,274.4z" fill="#000111"></path><path class="st1" d="M295,328.7c-0.6,0-1-0.4-1-1v-30.5c0-0.6,0.4-1,1-1h7.9c0.6,0,1,0.4,1,1s-0.4,1-1,1H296v29.5
		C296,328.2,295.6,328.7,295,328.7C295,328.7,295,328.7,295,328.7z" fill="#000111"></path><path class="st1" d="M348.6,99.8h-17.2c-0.6,0-1-0.4-1-1s0.4-1,1-1h17.2c0.6,0,1,0.4,1,1S349.2,99.8,348.6,99.8z" fill="#000111"></path><path class="st1" d="M336.7,99.6c-0.6,0-1-0.4-1-1v-17h-10.2c-0.6,0-1-0.4-1-1s0.4-1,1-1h11.2c0.6,0,1,0.4,1,1v18
		C337.7,99.1,337.3,99.6,336.7,99.6z" fill="#000111"></path><path class="st1" d="M461.1,195.3c-0.1,0-0.1,0-0.2,0c-0.5-0.1-0.9-0.6-0.8-1.2c0,0,0,0,0,0c1.1-5-6.1-7.6-6.1-7.6l-36.9-12.9
		c-6.2,0.8-8.2,9-8.2,9.1c-0.1,0.3-0.2,0.5-0.5,0.7c-0.3,0.1-0.6,0.2-0.8,0.1l-56-19.7c-0.5-0.2-0.8-0.8-0.6-1.3
		c0.2-0.5,0.8-0.8,1.3-0.6l55,19.4c0.8-2.6,3.6-9,10-9.6c0.1,0,0.3,0,0.4,0l37.1,12.9c3.1,1.1,8.7,4.6,7.5,10
		C462,195,461.6,195.3,461.1,195.3z" fill="#000111"></path><path class="st1" d="M462.1,278h-12.4c-0.6,0-1-0.4-1-1s0.4-1,1-1h12.4c0.6,0,1,0.4,1,1S462.6,278,462.1,278z" fill="#000111"></path><path class="st1" d="M348.6,459.3c-0.6,0-1-0.4-1-1v-48.9h-21.3c-0.6,0-1-0.4-1-1v-49.2c0-0.6,0.4-1,1-1s1,0.4,1,1v48.2h21.2
		c0.6,0,1,0.4,1,1v49.9C349.6,458.8,349.2,459.3,348.6,459.3C348.6,459.3,348.6,459.3,348.6,459.3z" fill="#000111"></path><path class="st1" d="M295.5,403.4h-22.6c-0.6,0-1-0.4-1-1s0.4-1,1-1h21.6v-41.9c0-0.6,0.4-1,1-1H308v-10.7c0-0.6,0.4-1,1-1
		s1,0.4,1,1v11.7c0,0.6-0.4,1-1,1h-12.5v41.9C296.5,402.9,296.1,403.4,295.5,403.4C295.5,403.4,295.5,403.4,295.5,403.4z" fill="#000111"></path><path class="st1" d="M310.6,391.7h-15.1c-0.6,0-1-0.4-1-1s0.4-1,1-1h14.1v-7.4c0-0.6,0.4-1,1-1s1,0.4,1,1v8.5
		C311.6,391.3,311.2,391.7,310.6,391.7z" fill="#000111"></path><path class="st1" d="M295.3,372.8H283c-0.6,0-1-0.4-1-1v-27.1c0-0.6,0.4-1,1-1s1,0.4,1,1v26.1h11.3c0.6,0,1,0.4,1,1
		S295.9,372.7,295.3,372.8L295.3,372.8z" fill="#000111"></path><path class="st1" d="M302.7,431.7H272c-0.6,0-1-0.4-1-1s0.4-1,1-1h29.7V414c0-0.6,0.4-1,1-1s1,0.4,1,1v16.7
		C303.7,431.2,303.3,431.7,302.7,431.7C302.7,431.7,302.7,431.7,302.7,431.7z" fill="#000111"></path><path class="st1" d="M300.5,458.8c-0.6,0-1-0.4-1-1V446c0-0.6,0.4-1,1-1h22.7v-19c0-0.6,0.4-1,1-1s1,0.4,1,1v20c0,0.6-0.4,1-1,1
		h-22.7v10.8c0,0.6-0.4,1-0.9,1.1C300.6,458.8,300.6,458.8,300.5,458.8z" fill="#000111"></path><path class="st1" d="M338.1,441.5h-13.8c-0.6,0-1-0.4-1-1s0.4-1,1-1h12.8V433c0-0.6,0.4-1,1-1s1,0.4,1,1v7.4
		C339.1,441,338.7,441.5,338.1,441.5C338.1,441.5,338.1,441.5,338.1,441.5z" fill="#000111"></path><path class="st1" d="M332.7,408.9c-0.6,0-1-0.4-1-1v-47.3c0-0.6,0.4-1,1-1s1,0.4,1,1v47.3C333.7,408.5,333.3,408.9,332.7,408.9
		C332.7,408.9,332.7,408.9,332.7,408.9z" fill="#000111"></path><path class="st1" d="M325.6,344.8c-8.1,0-14.6-6.5-14.6-14.6s6.5-14.6,14.6-14.6s14.6,6.5,14.6,14.6c0,0,0,0,0,0
		C340.2,338.3,333.7,344.8,325.6,344.8z M325.6,317.7c-6.9,0-12.6,5.6-12.6,12.5s5.6,12.6,12.5,12.6s12.6-5.6,12.6-12.5v0
		C338.2,323.3,332.6,317.7,325.6,317.7z" fill="#000111"></path><path class="st1" d="M325.6,336.4c-3.4,0-6.2-2.8-6.2-6.2s2.8-6.2,6.2-6.2s6.2,2.8,6.2,6.2c0,0,0,0,0,0
		C331.8,333.6,329,336.4,325.6,336.4z M325.6,326.1c-2.3,0-4.1,1.9-4.1,4.1s1.9,4.1,4.1,4.1c2.3,0,4.1-1.9,4.1-4.1
		C329.8,327.9,327.9,326.1,325.6,326.1z" fill="#000111"></path><path class="st1" d="M280.1,325c-0.4,0-0.7-0.2-0.9-0.5l-65.2-105.6c-0.3-0.5-0.2-1.1,0.3-1.4l9-6.5c0.5-0.3,1.1-0.2,1.4,0.2
		c0.3,0.5,0.2,1.1-0.2,1.4l-8.2,5.9l64.2,104.1l8.1-4.2c0.5-0.3,1.1-0.1,1.4,0.4s0.1,1.1-0.4,1.4l-9,4.6
		C280.4,325,280.3,325,280.1,325z" fill="#000111"></path><path class="st1" d="M411.2,176.4c-0.1,0-0.2,0-0.3-0.1l-58.7-20.1c-0.5-0.2-0.8-0.8-0.6-1.3c0.2-0.5,0.8-0.8,1.3-0.6l58.7,20.1
		c0.6,0.1,0.9,0.6,0.8,1.2C412.3,176.2,411.8,176.5,411.2,176.4L411.2,176.4z" fill="#000111"></path><path class="st1" d="M369,147.8c-6.2,0-11.2-5-11.2-11.2c0-6.2,5-11.2,11.2-11.2c6.2,0,11.2,5,11.2,11.2v0
		C380.2,142.7,375.2,147.7,369,147.8z M369,127.4c-5,0-9.1,4.1-9.1,9.1s4.1,9.1,9.1,9.1s9.1-4.1,9.1-9.1c0,0,0,0,0,0
		C378.1,131.5,374,127.4,369,127.4z" fill="#000111"></path><path class="st1" d="M369,141.2c-2.6,0-4.6-2.1-4.6-4.6s2.1-4.6,4.6-4.6c2.6,0,4.6,2.1,4.6,4.6c0,0,0,0,0,0
		C373.6,139.1,371.6,141.2,369,141.2z M369,134c-1.4,0-2.6,1.2-2.6,2.6s1.2,2.6,2.6,2.6c1.4,0,2.6-1.2,2.6-2.6v0
		C371.6,135.2,370.4,134,369,134L369,134z" fill="#000111"></path><path class="st1" d="M323.8,205.7c-6.2,0-11.2-5-11.2-11.2c0-6.2,5-11.2,11.2-11.2c6.2,0,11.2,5,11.2,11.2c0,0,0,0,0,0
		C335,200.7,330,205.7,323.8,205.7z M323.8,185.4c-5,0-9.1,4.1-9.1,9.1s4.1,9.1,9.1,9.1c5,0,9.1-4.1,9.1-9.1
		C333,189.5,328.9,185.4,323.8,185.4z" fill="#000111"></path><path class="st1" d="M323.8,199.1c-2.6,0-4.6-2.1-4.6-4.6s2.1-4.6,4.6-4.6c2.6,0,4.6,2.1,4.6,4.6c0,0,0,0,0,0
		C328.4,197.1,326.4,199.1,323.8,199.1z M323.8,191.9c-1.4,0-2.6,1.2-2.6,2.6s1.2,2.6,2.6,2.6c1.4,0,2.6-1.2,2.6-2.6v0
		C326.4,193.1,325.2,192,323.8,191.9L323.8,191.9z" fill="#000111"></path><path class="st1" d="M459,308.2h-0.2l-8.3-1.5c-0.6-0.1-0.9-0.6-0.8-1.2c0.1-0.6,0.6-0.9,1.2-0.8l8.3,1.5c0.6,0,1,0.5,0.9,1.1
		S459.6,308.2,459,308.2L459,308.2z" fill="#000111"></path><path class="st1" d="M271.8,459.1H235c-0.6,0-1-0.4-1-1s0.4-1,1-1h36.8c0.6,0,1,0.4,1,1S272.3,459.1,271.8,459.1L271.8,459.1z" fill="#000111"></path><path class="st1" d="M449.9,459.1h-39.6c-0.6,0-1-0.4-1-1s0.4-1,1-1h39.6c0.6,0,1,0.4,1,1S450.4,459.1,449.9,459.1z" fill="#000111"></path></g><g id="character"><path class="st3" d="M239.9,101.3l10.3-7.9c0,0,7.2-8.8,11.4-10.8s7.8-2,10.6-2.5c1.8-0.2,3.5,0.4,4.7,1.8c0,0,8.9-0.7,13.5-2.3
		s5.9-3.2,8.5-2.1c1.5,0.7,2.7,2,3.2,3.6c1.8-0.5,3.7-0.2,5.3,0.7c2.3,1.5,2.1,7.3,0.5,10s-2.6,4.3-2.6,4.3s3.9,0.9,4.1,4.8
		s-3.1,7.2-5.6,8.8s-8.2,3.3-8.2,3.3s2.1,2,6.8,2.1s5.4,0.3,6,2.7s-0.9,5.1-3.4,6.7s-7.7,0.7-11.9,1.4s-15.6,2.5-23.7,1.8
		s-13,2.4-13,2.4L239.9,101.3z"></path><path class="st4" d="M268,85c-0.6,0.1-1-0.3-1.1-0.9c-0.1-0.6,0.3-1,0.9-1.1l0,0l8.9-2c0.6-0.1,1.1,0.2,1.2,0.8s-0.2,1.1-0.8,1.2
		l-8.9,2H268z"></path><path class="st4" d="M282.2,93.1c-0.6,0.1-1.1-0.3-1.1-0.9s0.3-1.1,0.9-1.1c3.6-1,7-2.1,10.5-3.5c3.5-1.6,6.6-4,9-7
		c0.3-0.5,1-0.5,1.4-0.2s0.5,1,0.2,1.4c-2.6,3.3-6,5.9-9.8,7.6c-3.5,1.4-7.1,2.6-10.7,3.6C282.4,93.1,282.3,93.1,282.2,93.1z"></path><path class="st4" d="M286.9,104c-0.6,0-1-0.4-1.1-0.9s0.4-1,0.9-1.1l8.1-1.2c3.7-0.6,7.1-2.5,9.7-5.2c0.3-0.5,0.9-0.6,1.4-0.3
		c0,0,0,0,0,0c0.5,0.3,0.6,0.9,0.3,1.4c-2.9,3.3-6.8,5.4-11.1,6.1L287,104H286.9z"></path><path class="st4" d="M295.7,114.2h-0.1c-2.8-0.4-7.7-1.1-8.5-1.6c-0.5-0.3-0.7-0.9-0.4-1.3c0,0,0,0,0,0c0.3-0.5,0.9-0.7,1.4-0.4
		c0,0,0,0,0,0c2.6,0.6,5.2,1,7.8,1.3c0.6,0,1,0.5,0.9,1.1S296.3,114.2,295.7,114.2L295.7,114.2z"></path><path class="st1" d="M258.9,142.8c-0.4,0-0.7-0.2-0.9-0.5c-9.4-15.5-23.9-38.8-25.1-40.4c-0.3-0.3-0.5-0.8-0.3-1.2
		c0.2-0.5,0.8-0.7,1.3-0.5c0,0,0,0,0,0c0.4,0.2,1,0.4,25.8,41c0.3,0.5,0.2,1.1-0.3,1.4C259.3,142.7,259.1,142.7,258.9,142.8
		L258.9,142.8z"></path><path class="st1" d="M241.7,156.3l-18.2,42.8c-5.4,13.8-27.6,28.5-50.8,17l-39.2-26.2L241.7,156.3z"></path><linearGradient id="SVGID_00000035495345659981001970000012388512181473207698_-HrmIjtKy86" gradientUnits="userSpaceOnUse" x1="7988.8159" y1="311.022" x2="8061.9263" y2="76.702" gradientTransform="matrix(-1 0 0 -1 8122.9502 502)"><stop offset="0" style="stop-color: rgb(243, 131, 116);"></stop><stop offset="1" style="stop-color: rgb(198, 66, 52);"></stop></linearGradient><path d="M69.2,292.4c0,0,32.8-1.9,22.5-35.5
		l31.8,74.9c0,0-22.9,20.8-64.6,8.4L69.2,292.4z" style="fill: url(&quot;#SVGID_00000035495345659981001970000012388512181473207698_-HrmIjtKy86&quot;);"></path><linearGradient id="SVGID_00000143609625875170147970000015479180671548272826_-HrmIjtKy86" gradientUnits="userSpaceOnUse" x1="7965.2129" y1="303.6579" x2="8038.3232" y2="69.3379" gradientTransform="matrix(-1 0 0 -1 8122.9502 502)"><stop offset="0" style="stop-color: rgb(243, 131, 116);"></stop><stop offset="1" style="stop-color: rgb(198, 66, 52);"></stop></linearGradient><path d="M114.8,208.8L114.8,208.8
		c16-1.9,28.6,12.2,30.8,30.9l24.5,118.6h-48.8l-37-114.2c-2.4-16.9,9.3-32.5,26.1-34.9C111.9,208.9,113.4,208.8,114.8,208.8z" style="fill: url(&quot;#SVGID_00000143609625875170147970000015479180671548272826_-HrmIjtKy86&quot;);"></path><path class="st3" d="M170.2,358.2c1.2,8.4,1.8,10.5,10.9,23.3c2.1,17.3-58.2-7.9-58.2-7.9l-1.6-15.4L170.2,358.2z"></path><path class="st1" d="M122.9,373.6l4.9,29.2l67,0.1L181,381.4c0,0,1.5,8.6-17.8,2.3C138.7,375.7,123.8,366.9,122.9,373.6z"></path><path class="st7" d="M187.6,392.7c-0.8,0-1.6-0.3-2.2-0.8c-1.6-1.3-1.6-3.4-0.1-5.3c2.4-2.9,6.2-4.2,9.9-3.5
		c0.6-1.2,0.9-2.5,1.1-3.8c0.2-1.7-0.3-3-1.3-3.6c-1-0.6-2.1-0.8-3.2-0.6c-6.2,1.3-13.6,12.9-13.7,13c-0.3,0.5-0.9,0.6-1.4,0.3
		c0,0,0,0,0,0c-0.5-0.3-0.6-0.9-0.3-1.4c0,0,0,0,0,0c0.3-0.5,7.9-12.4,15-13.9c1.6-0.4,3.4-0.1,4.8,0.9c1.7,1.1,2.5,3,2.2,5.5
		c-0.2,1.4-0.6,2.8-1.1,4.1c1,0.4,2,0.9,2.9,1.5c0.5,0.3,0.6,1,0.3,1.4s-1,0.6-1.4,0.3c-0.8-0.6-1.7-1-2.7-1.4
		c-1.7,3.1-4.3,5.8-6.7,6.9C188.9,392.6,188.3,392.7,187.6,392.7z M193.3,385c-2.4,0-4.8,1-6.4,2.9c-0.4,0.5-1.2,1.8-0.2,2.5
		c0.2,0.2,0.8,0.6,2.1,0.1c1.9-0.8,3.9-3,5.4-5.4C193.9,385,193.6,385,193.3,385L193.3,385z"></path><path class="st3" d="M58.8,340.2c-8.5-0.6-10.7-0.5-25.1,5.7c-17.3-1.6,20-55.2,20-55.2l15.4,1.7L58.8,340.2z"></path><path class="st1" d="M53.8,290.7l-29.5-1.4L10,354.8l23.9-9c0,0-8.7-0.4,1.5-17.9C48.5,305.7,60.2,293.1,53.8,290.7z"></path><path class="st7" d="M25.5,364c-0.3,0-0.6-0.1-0.8-0.3c-0.4-0.4-0.4-1,0-1.4c0,0,0,0,0,0c0.7-0.7,1.4-1.5,1.9-2.3
		c-2.6-2.4-4.8-5.4-5.3-8c-0.4-1.5,0.1-3,1.2-4c1.6-1.3,3.6-0.9,5.2,1c2.3,3,2.8,7,1.4,10.4c1,0.8,2.2,1.4,3.4,1.9
		c1.7,0.5,2.9,0.4,3.8-0.5c0.8-0.8,1.3-1.9,1.2-3c0-6.4-9.7-16-9.8-16.1c-0.4-0.4-0.4-1,0-1.4s1-0.4,1.4,0l0,0
		c0.4,0.4,10.5,10.4,10.4,17.6c0.1,1.7-0.6,3.3-1.8,4.5c-1.5,1.4-3.5,1.8-5.9,1c-1.3-0.5-2.6-1.1-3.8-2c-0.6,0.9-1.3,1.8-2.1,2.5
		C26,363.9,25.7,364,25.5,364z M24.7,349.2c-0.3,0-0.5,0.1-0.7,0.3c-0.2,0.1-0.8,0.6-0.5,2c0.4,2,2.1,4.4,4.2,6.4
		c0.9-2.6,0.4-5.5-1.2-7.7C25.9,349.7,25.3,349.3,24.7,349.2z"></path><path class="st1" d="M114.5,336c-0.5,0-0.9-0.4-1-0.8c-0.4-1.8-14.6-45.6-20-62.4c-0.2-0.5,0.1-1.1,0.7-1.3s1.1,0.1,1.3,0.7
		c2,6.2,19.8,60.8,20.1,62.7c0.1,0.5-0.3,1.1-0.8,1.2c0,0,0,0,0,0L114.5,336z"></path><path class="st0" d="M167.8,352h-47.7c-0.6,0-1-0.4-1-1s0.4-1,1-1h47.7c0.6,0,1,0.4,1,1S168.4,352,167.8,352z"></path><path class="st0" d="M153,350.8c-0.5,0-0.9-0.3-1-0.7l-40.6-137.2c-0.2-0.6,0.2-1.1,0.7-1.3c0.6-0.2,1.1,0.2,1.3,0.7L154,349.5
		c0.2,0.5-0.1,1.1-0.6,1.3C153.2,350.8,153.1,350.8,153,350.8L153,350.8z"></path><path class="st0" d="M75,344.4h-0.2c-0.5-0.1-0.9-0.6-0.9-1.1c0,0,0,0,0,0c3.1-21.1,7.7-53.1,7.7-55.2c-0.1-0.6,0.2-1.1,0.8-1.2
		c0.6-0.1,1.1,0.2,1.2,0.8c0.1,0.3,0.4,1.2-7.7,56C76,344.1,75.5,344.4,75,344.4z"></path><path class="st0" d="M83.7,309.9c-1,0-2-0.1-3-0.2c-0.6-0.1-1-0.6-0.9-1.1c0.1-0.6,0.6-1,1.1-0.9c11,1.2,20.7-5.5,20.8-5.6
		c0.5-0.3,1.1-0.2,1.4,0.2c0.3,0.5,0.2,1.1-0.2,1.4l0,0C102.5,304,94.1,309.9,83.7,309.9z"></path><path class="st4" d="M171.8,366.9c-0.2,0-0.3,0-0.5-0.1l-7.9-4.2c-0.5-0.3-0.7-0.9-0.4-1.3c0,0,0,0,0,0c0.2-0.5,0.8-0.7,1.3-0.5
		c0,0,0,0,0,0l7.9,4.2c0.5,0.2,0.7,0.9,0.4,1.3c0,0,0,0,0,0C172.6,366.7,172.2,366.9,171.8,366.9z"></path><path class="st4" d="M49.6,340.3c-0.2,0-0.5-0.1-0.6-0.2c-0.4-0.3-0.5-1-0.2-1.4c0,0,0,0,0,0l4-5c0.3-0.4,1-0.5,1.4-0.2
		c0.4,0.3,0.5,1,0.2,1.4l-4,5C50.2,340.1,49.9,340.3,49.6,340.3z"></path><path class="st0" d="M106.2,236.3c-6.6,0-14.3-2-18.9-10c-0.3-0.5-0.1-1.1,0.4-1.4s1.1-0.1,1.4,0.4l0,0c8.2,14.5,28.3,7.2,28.5,7.1
		c0.5-0.2,1.1,0.1,1.3,0.6c0,0,0,0,0,0c0.2,0.5-0.1,1.1-0.6,1.3c0,0,0,0,0,0C114.4,235.6,110.3,236.3,106.2,236.3z"></path><linearGradient id="SVGID_00000026866642878545920730000015488192759560576143_-HrmIjtKy86" gradientUnits="userSpaceOnUse" x1="159.7294" y1="471.1476" x2="97.6194" y2="303.7177" gradientTransform="matrix(1 0 0 -1 0 502)"><stop offset="0" style="stop-color: rgb(10, 107, 91);"></stop><stop offset="0.78" style="stop-color: rgb(0, 81, 70);"></stop><stop offset="0.91" style="stop-color: rgb(0, 80, 69);"></stop></linearGradient><path d="M103.6,139.2c0,0-14.6,2.4-20.5,16.8
		c-2.1,5.2-4.2,14.4-5.6,23.1c-1.6,9.7,5,18.9,14.8,20.4c1.2,0.2,2.4,0.3,3.6,0.2l20-0.8c8.2-0.3,15.1-6.2,16.7-14.2l6.4-31.2
		C139,153.5,131.6,135.8,103.6,139.2z" style="fill: url(&quot;#SVGID_00000026866642878545920730000015488192759560576143_-HrmIjtKy86&quot;);"></path><linearGradient id="SVGID_00000018923110790645164190000012065034314337065873_-HrmIjtKy86" gradientUnits="userSpaceOnUse" x1="217.3489" y1="449.7741" x2="155.2389" y2="282.3441" gradientTransform="matrix(1 0 0 -1 0 502)"><stop offset="0" style="stop-color: rgb(10, 107, 91);"></stop><stop offset="0.78" style="stop-color: rgb(0, 81, 70);"></stop><stop offset="0.91" style="stop-color: rgb(0, 80, 69);"></stop></linearGradient><path d="M103.6,139.2l76.8-6.4L244.3,94l24.2,41.7
		l-58.7,46.9c-11.1,7.8-24.4,11.5-37.9,10.7l-69.5-2.2C102.4,191.1,94.4,150.7,103.6,139.2z" style="fill: url(&quot;#SVGID_00000018923110790645164190000012065034314337065873_-HrmIjtKy86&quot;);"></path><path class="st1" d="M129.6,192.1h-0.2l-27.9-5.6c-5.2-1.5-8.9-7.3-9.6-14.8c-1-11,5-21.5,15-26.2c0.5-0.3,1.1-0.1,1.3,0.4
		c0,0,0,0,0,0c0.3,0.5,0.1,1.1-0.4,1.3c0,0,0,0,0,0c-9.3,4.3-14.8,14-13.8,24.2c0.6,6.7,3.7,11.8,8,13l27.8,5.5
		c0.6,0.1,1,0.5,0.9,1.1C130.7,191.7,130.2,192.1,129.6,192.1L129.6,192.1z"></path><path class="st10" d="M177.9,192.4h-0.3c-1.2-0.1-3.2-1-3-5.5c0.4-8.4,7-14.7,17.9-17.4c1.3-0.3,2.6-0.6,3.8-0.8
		c1.2-2.6,2-5.3,2.5-8.1c0.8-6-1.5-9.5-7-10.5c-24.2-4.4-51.3,40.7-51.6,41.2c-0.3,0.5-0.9,0.7-1.4,0.4s-0.7-0.9-0.4-1.4
		c5-8.1,10.7-15.7,17-22.7c13.6-14.9,25.9-21.4,36.7-19.4c6.5,1.2,9.6,5.7,8.6,12.8c-0.4,2.6-1.1,5.1-2.1,7.5
		c10.5-1,19,2.1,21.6,6.4c0.3,0.5,0.1,1.1-0.3,1.4c0,0,0,0,0,0c-0.5,0.3-1.1,0.1-1.4-0.3c0,0,0,0,0,0c-2.5-4.2-11.5-6.3-20.8-5.2
		c-1.9,3.9-4.1,7.6-6.7,11C187,186.9,181.5,192.4,177.9,192.4z M195.2,171c-0.8,0.1-1.5,0.3-2.3,0.5c-4.8,1.2-15.9,5-16.4,15.5
		c-0.1,1.5,0.1,3.2,1.1,3.3h0.2C181.6,190.3,190.3,180.9,195.2,171z"></path><path class="st10" d="M192.3,138c-0.5,0-1-0.1-1.4-0.2c-3-0.8-4.8-4.2-5.3-10c-0.1-0.5,0.3-1,0.9-1.1c0,0,0,0,0,0
		c0.5-0.1,1,0.4,1.1,0.9c0,0,0,0,0,0c0.4,4.9,1.7,7.6,3.8,8.2c7.5,2,24.6-20.2,30.6-28.9c0.3-0.5,1-0.6,1.4-0.3
		c0.5,0.3,0.6,1,0.3,1.4c-3.8,5.4-7.9,10.7-12.2,15.7C203.2,133.3,196.7,138,192.3,138z"></path><circle class="st10" cx="160.1" cy="163.1" r="5.3"></circle><path class="st1" d="M123.6,95.4c0,0,16.3-9.3,2.4-15.7c-19.9-9.1-16.2,2.9-16.2,2.9s-4.1,1.4-10.5,3.9
		c-12.7,4.8-17.7,16.6-11.9,26.3L123.6,95.4z"></path><path class="st3" d="M87.6,115.6c1.6,5.6,5.4,10.4,10.6,13.1l0,0c10.4,5.4,23.2,1.4,28.6-9c5.4-10.4,1.4-23.2-9-28.6
		c-10.4-5.4-23.2-1.4-28.6,9C86.7,104.9,86.2,110.4,87.6,115.6L87.6,115.6z"></path><path class="st1" d="M133.2,112.5c-1,0-2.1-0.8-3.2-2.4c-1.3-1.9-2.3-3.9-3-6.1c-0.8-2.1-1.2-4.4-1.4-6.6c-0.1-2.3,0.4-3.7,1.6-4.2
		c1.2-0.4,2.5,0.3,3.8,2.3c2.5,3.8,4,8.2,4.4,12.7c0.1,2.3-0.4,3.8-1.6,4.2C133.6,112.4,133.4,112.5,133.2,112.5z M127.9,95.2
		c-0.4,0.5-0.6,3.5,1,8.2s3.6,6.9,4.2,7.1c0.4-0.5,0.6-3.5-1-8.2S128.5,95.3,127.9,95.2z"></path><ellipse class="st3" transform="matrix(1 -4.886741e-03 4.886741e-03 1 -0.5347 0.6408)" cx="130.9" cy="109.7" rx="6.6" ry="2.9"></ellipse><path class="st1" d="M87.6,115.6c1.6,5.6,5.4,10.4,10.6,13.1l0,0c3.7-3.2-2.1-9.9-2.1-9.9c-5.5,1-8.7-10-3.1-12s7.8,4.4,7.8,4.4
		c0.6-4.5,0.6-7.7,3.8-10.1c8.6-0.2,18.7-5.6,18.8-5.7c-8-8.6-21.4-9-30-1C87.8,99.8,85.5,108,87.6,115.6L87.6,115.6z"></path><path class="st4" d="M97.1,114.7H97h-0.3c-0.3,0,0.1,0,0,0l-0.4-0.1c0.2,0,0,0-0.1,0l-0.2-0.1c-0.2-0.1,0,0-0.1,0l-0.1-0.1
		c-0.1-0.1-0.1-0.1-0.2-0.2c0.1,0.1,0,0,0-0.1l-0.1-0.2c0,0.1,0,0,0,0c0-0.1-0.1-0.2-0.1-0.2c0,0,0-0.2,0-0.1c0-0.1,0-0.3,0-0.4
		s0,0.2,0-0.1c0-0.1,0-0.1,0-0.2c0,0,0.1-0.2,0-0.2s0.1-0.1,0.1-0.1c0-0.1,0.1-0.1,0.1-0.2c0.2-0.2-0.1,0.1,0,0s0.1-0.1,0.2-0.2
		s0,0,0,0l0.4-0.2c0.2-0.1,0,0,0.1,0l0.2-0.1h0.2c-0.2,0,0.1,0,0.1,0c0.6,0,1-0.4,1-1c0-0.1,0-0.2,0-0.3c-0.5-1.6-2.2-2.6-3.8-2.2
		c-1.1,0.3-2,1.2-2.2,2.3c-0.1,0.6,0.2,1.1,0.7,1.3c0.6,0.1,1.1-0.2,1.3-0.7c0-0.1,0-0.2,0.1-0.3c0-0.1,0-0.1,0,0
		c0-0.1,0.1-0.1,0.1-0.2c0,0,0.2-0.2,0.1-0.1l0.2-0.2c0.2-0.2-0.1,0,0.1-0.1c0,0,0.3-0.2,0.2-0.1s0.2,0,0.2-0.1c0.2-0.1-0.1,0,0.1,0
		H95c-0.2,0,0,0,0.1,0l0.2,0.1c-0.1,0-0.1,0,0,0l0.3,0.2c-0.1-0.1,0,0,0.1,0.1s0.2,0.2,0.1,0.1c0,0.1,0.1,0.2,0.1,0.2s0.1,0.1,0,0
		c0,0.1,0,0.1,0,0.2l1-1.3c-2,0-3.5,1.6-3.6,3.5c0,1.2,0.6,2.3,1.6,2.9c0.9,0.5,1.9,0.7,2.9,0.5c0.6-0.2,0.9-0.7,0.7-1.3
		s-0.7-0.9-1.3-0.7L97.1,114.7z"></path><ellipse class="st0" transform="matrix(0.8843 -0.467 0.467 0.8843 -35.8872 69.1356)" cx="121.5" cy="107" rx="2.6" ry="3.1"></ellipse><ellipse class="st11" transform="matrix(0.8843 -0.467 0.467 0.8843 -35.687 69.5085)" cx="122.4" cy="106.7" rx="1.7" ry="2"></ellipse><path class="st4" d="M117,124.2h-0.1c-1.7-0.1-3.2-1-4.2-2.4c-1.8-2.6-0.7-6.3-0.7-6.5c0.2-0.6,0.7-0.9,1.3-0.7s0.9,0.7,0.7,1.3
		c0,0.1-0.8,3,0.4,4.8c0.7,0.9,1.7,1.4,2.8,1.5c0.6,0,1,0.5,0.9,1.1C118.1,123.7,117.6,124.2,117,124.2L117,124.2z"></path><path class="st4" d="M112.9,116.4h-0.2c-1.1-0.1-2.2-0.7-2.9-1.6c-0.4-0.4-0.3-1.1,0.2-1.4c0.4-0.4,1.1-0.3,1.4,0.1
		c0.3,0.5,0.8,0.8,1.4,0.8c0.7,0,1.3-0.3,1.8-0.8c0.4-0.4,1-0.4,1.4,0s0.4,1,0,1.4l0,0C115.2,115.8,114,116.4,112.9,116.4z"></path><path class="st1" d="M123.2,117.6c-3,0-6.3-3.3-8-8.2c-0.9-2.4-1.1-4.9-0.8-7.4c0.4-2.4,1.6-4,3.2-4.6s3.6,0,5.4,1.7
		c3.6,3.6,5.3,8.7,4.7,13.7c-0.4,2.4-1.6,4-3.2,4.6C124.1,117.6,123.7,117.6,123.2,117.6z M118.9,99.3c-0.2,0-0.4,0-0.6,0.1
		c-0.9,0.3-1.6,1.4-1.9,3c-0.3,2.2,0,4.3,0.7,6.4c1.6,4.8,4.8,7.4,6.7,6.7c0.9-0.3,1.6-1.4,1.9-3c0.5-4.4-1-8.7-4.1-11.8
		C120.9,99.8,119.9,99.4,118.9,99.3z"></path></g><g id="stair"><polygon class="st1" points="107.5,425.6 192.8,425.6 187.3,418.7 104.8,418.7 	"></polygon><polygon class="st1" points="92,449 182.2,449 176.7,442 94.2,442 	"></polygon><path class="st1" d="M83.6,458.5h8l25.3-50.6l2-4h76.9l-27.3,54.6h8l25.3-50.6l3-6c0.9-1.8,0.2-3.9-1.6-4.8c-0.5-0.2-1-0.4-1.6-0.4
		h-84.9c-1.4,0-2.6,0.8-3.2,2L83.6,458.5z"></path><polygon class="st0" points="130,425.6 215.3,425.6 209.8,418.7 127.3,418.7 	"></polygon><path class="st1" d="M215.3,426.6H130c-0.4,0-0.8-0.2-1-0.6l-2.7-7c-0.2-0.5,0-1.1,0.5-1.3c0.1-0.1,0.3-0.1,0.5-0.1h82.5
		c0.3,0,0.6,0.1,0.8,0.4l5.5,7c0.4,0.4,0.3,1.1-0.1,1.4C215.8,426.6,215.6,426.7,215.3,426.6L215.3,426.6z M130.7,424.6h82.5
		l-3.9-4.9h-80.5L130.7,424.6z"></path><polygon class="st0" points="141.1,448.9 226.4,448.9 221,441.9 138.4,441.9 	"></polygon><path class="st1" d="M226.4,449.9h-85.3c-0.4,0-0.8-0.2-1-0.7l-2.7-7c-0.1-0.3-0.1-0.7,0.1-0.9c0.2-0.3,0.5-0.4,0.8-0.4H221
		c0.3,0,0.6,0.1,0.8,0.4l5.5,7c0.2,0.3,0.3,0.7,0.1,1.1C227.2,449.7,226.8,449.9,226.4,449.9z M141.8,447.9h82.5l-3.9-4.9h-80.5
		L141.8,447.9z"></path><path class="st0" d="M113.9,401.9l3,6l25.3,50.6h8l-27.3-54.6h76.9l2,4l25.3,50.7h8l-29.9-59.8c-0.6-1.2-1.8-2-3.2-2h-84.8
		c-2,0-3.6,1.6-3.6,3.6C113.5,400.8,113.6,401.4,113.9,401.9L113.9,401.9z"></path><path class="st1" d="M235,459.5h-8c-0.4,0-0.7-0.2-0.9-0.6l-27-54.1h-74.6l26.6,53.2c0.2,0.3,0.1,0.7-0.1,1
		c-0.2,0.3-0.5,0.5-0.9,0.5h-8c-0.4,0-0.7-0.2-0.9-0.6L113,402.4c-0.7-1.4-0.6-3.1,0.2-4.5c0.8-1.4,2.3-2.2,3.9-2.2H202
		c1.7,0,3.3,1,4.1,2.5l29.9,59.8c0.2,0.3,0.2,0.7,0,1C235.8,459.4,235.4,459.6,235,459.5z M227.6,457.5h5.7l-29.1-58.4
		c-0.4-0.9-1.3-1.4-2.3-1.4h-84.8c-0.9,0-1.7,0.5-2.2,1.2c-0.5,0.8-0.5,1.7-0.1,2.5l0,0l28,56.1h5.7l-26.6-53.2
		c-0.3-0.5-0.1-1.1,0.4-1.4c0.2-0.1,0.3-0.1,0.5-0.1h76.9c0.4,0,0.7,0.2,0.9,0.6L227.6,457.5z"></path></g></svg>